<?xml version="1.0" standalone="no"?>
<!DOCTYPE svg PUBLIC "-//W3C//DTD SVG 20010904//EN"
 "http://www.w3.org/TR/2001/REC-SVG-20010904/DTD/svg10.dtd">
<svg version="1.0" xmlns="http://www.w3.org/2000/svg"
 width="1200.000000pt" height="675.000000pt" viewBox="0 0 1200.000000 675.000000"
 preserveAspectRatio="xMidYMid meet">

<g transform="translate(0.000000,675.000000) scale(0.100000,-0.100000)"
fill="#000000" stroke="none">
<path d="M11685 6192 c22 -19 74 -86 91 -117 6 -11 18 -33 27 -50 86 -158 108
-298 90 -579 -6 -104 -14 -198 -17 -210 -3 -12 -6 -86 -6 -166 -1 -80 -6 -203
-11 -275 -9 -115 -17 -256 -34 -620 -9 -183 -25 -488 -35 -645 -6 -85 -13
-225 -16 -310 -3 -85 -10 -198 -15 -250 -6 -52 -14 -197 -19 -322 -5 -125 -11
-231 -13 -235 -3 -5 -7 -111 -11 -238 -4 -126 -11 -279 -16 -340 -5 -60 -14
-202 -20 -315 -15 -293 -28 -432 -45 -480 -8 -24 -15 -55 -15 -70 0 -16 -3
-30 -8 -32 -4 -1 -20 -34 -35 -73 -15 -38 -36 -86 -47 -105 -10 -19 -28 -55
-39 -79 -37 -78 -158 -211 -191 -211 -8 0 -20 -10 -25 -22 -6 -12 -19 -26 -29
-32 -11 -6 -44 -26 -73 -44 -29 -18 -53 -30 -53 -26 0 3 -10 -1 -23 -9 -25
-16 -127 -49 -127 -41 0 3 -12 -2 -27 -11 -25 -14 -47 -15 -198 -6 -247 16
-397 30 -420 40 -11 6 -74 12 -140 15 -126 5 -311 24 -505 51 -63 9 -182 20
-264 26 -83 5 -164 12 -180 15 -17 3 -54 7 -82 9 -28 2 -62 6 -75 10 -13 3
-80 9 -149 15 -69 5 -138 12 -154 15 -16 3 -70 10 -120 16 -50 5 -102 11 -116
13 -14 2 -97 9 -185 15 -194 14 -195 14 -475 46 -124 14 -257 28 -295 30 -39
2 -82 8 -95 13 -14 5 -79 12 -145 16 -66 4 -156 11 -200 16 -44 5 -123 15
-175 21 -52 5 -131 15 -175 20 -152 17 -280 30 -370 35 -49 3 -97 8 -105 11
-8 3 -71 9 -140 13 -69 5 -154 13 -190 19 -36 6 -120 14 -187 17 -68 4 -123
10 -123 14 0 8 -101 19 -211 24 -30 2 -144 13 -254 25 -474 51 -564 61 -625
66 -36 3 -94 9 -130 15 -36 5 -123 12 -195 15 -173 9 -184 10 -225 23 -19 6
-64 13 -100 16 -104 8 -263 25 -290 31 -14 3 -83 10 -155 15 -71 5 -146 12
-165 14 -47 7 -210 24 -235 24 -33 1 -228 21 -255 27 -14 3 -97 12 -185 20
-88 8 -232 21 -320 29 -277 25 -287 27 -495 52 -69 9 -170 20 -225 25 -55 5
-147 13 -205 19 -58 5 -115 11 -127 14 -12 2 -54 7 -95 11 -168 14 -287 26
-343 34 -33 5 -63 7 -67 5 -4 -3 -35 0 -70 5 -35 5 -103 13 -153 16 -49 4
-109 11 -132 16 -23 5 -102 13 -175 19 -73 5 -159 13 -190 16 l-58 7 0 -61 0
-61 43 -5 c23 -4 67 -9 97 -12 30 -3 89 -9 130 -14 41 -4 147 -15 235 -24 88
-8 192 -21 230 -27 39 -6 102 -13 140 -15 39 -2 129 -10 200 -19 72 -8 173
-19 225 -25 52 -5 151 -16 220 -24 69 -8 181 -20 250 -26 114 -10 271 -25 360
-35 19 -2 67 -7 105 -11 39 -3 76 -11 83 -17 9 -7 16 -7 23 0 10 10 59 6 59
-6 0 -3 46 -7 103 -9 56 -1 136 -6 177 -12 41 -5 158 -16 260 -25 102 -8 201
-20 220 -25 19 -5 60 -12 90 -14 30 -3 81 -8 113 -11 31 -3 81 -7 110 -10 28
-2 84 -9 122 -14 39 -5 112 -12 162 -16 51 -4 91 -10 89 -14 -2 -3 30 -5 71
-4 41 0 94 -5 116 -12 37 -12 225 -28 299 -26 16 1 79 -5 140 -14 144 -19 171
-22 358 -40 271 -27 442 -45 560 -60 63 -7 142 -15 175 -15 77 -2 98 -5 110
-12 6 -3 48 -9 95 -12 153 -12 205 -18 221 -27 9 -4 45 -8 80 -7 68 1 258 -18
324 -32 22 -5 83 -12 135 -15 177 -10 235 -16 345 -31 61 -9 151 -20 200 -24
50 -4 180 -17 290 -29 110 -12 268 -29 350 -37 83 -8 191 -20 240 -26 50 -6
117 -12 150 -13 33 -1 92 -7 130 -13 39 -7 99 -12 135 -12 37 0 77 -6 93 -15
16 -8 45 -14 65 -13 34 1 314 -25 387 -37 42 -6 133 -15 250 -25 263 -21 471
-45 477 -54 4 -6 51 -12 105 -13 118 -3 330 -19 433 -33 41 -5 101 -11 133
-14 31 -2 64 -9 72 -16 12 -10 15 -10 15 0 0 9 3 10 13 1 8 -6 74 -13 148 -17
74 -3 157 -12 184 -19 28 -8 91 -16 140 -19 50 -3 107 -12 127 -20 29 -12 43
-13 65 -5 15 6 41 13 56 16 52 8 183 92 270 173 108 98 235 294 281 430 50
152 77 350 96 725 12 243 24 465 45 865 9 157 20 371 25 475 19 386 29 592 35
680 3 50 10 182 15 295 5 113 17 340 25 505 9 165 20 414 25 554 5 139 11 256
14 259 3 2 12 -1 21 -8 13 -11 15 23 15 314 0 314 -1 326 -19 326 -19 0 -41
42 -41 79 0 9 -20 65 -45 124 -43 105 -90 188 -134 234 -12 12 -21 25 -21 28
0 10 -52 55 -64 55 -6 -1 -2 -8 9 -18z"/>
<path d="M1895 5929 c-76 -11 -188 -65 -241 -115 -111 -107 -184 -294 -184
-470 0 -201 106 -317 290 -317 147 -1 261 65 360 208 78 114 107 184 140 341
17 82 29 248 19 259 -3 2 -41 5 -84 7 l-80 3 3 -65 c6 -134 -41 -305 -104
-379 -41 -48 -91 -78 -106 -63 -6 6 16 112 62 297 58 233 69 289 59 296 -17
10 -53 10 -134 -2z m-65 -276 c0 -10 -5 -34 -10 -53 -5 -19 -20 -82 -34 -139
-31 -130 -39 -139 -89 -105 -60 40 -70 90 -40 184 24 74 83 123 156 129 10 0
17 -6 17 -16z"/>
<path d="M1575 4850 c-81 -20 -185 -91 -247 -168 -45 -55 -95 -165 -119 -262
-30 -123 -24 -272 14 -352 42 -85 127 -142 231 -154 190 -23 388 135 490 389
36 90 65 231 73 347 7 118 4 122 -98 118 l-74 -3 3 -77 c9 -202 -87 -424 -195
-451 -29 -7 -35 3 -23 39 15 44 132 514 137 552 l5 32 -83 -1 c-46 -1 -97 -4
-114 -9z m-20 -272 c5 -14 -65 -305 -78 -325 -14 -23 -39 -14 -80 29 -39 41
-39 42 -33 100 6 66 31 121 71 158 45 43 111 63 120 38z"/>
<path d="M1098 3912 c-23 -5 -58 -125 -58 -200 0 -63 18 -120 45 -142 9 -7 21
-22 26 -33 10 -18 8 -19 -50 -12 -49 6 -62 4 -66 -8 -19 -49 -72 -273 -67
-279 4 -4 122 -17 262 -28 140 -11 298 -24 350 -29 52 -4 102 -5 110 0 9 4 29
65 51 156 43 171 42 173 -48 173 -77 0 -252 19 -295 32 -48 14 -94 63 -107
113 -8 31 -7 57 5 110 8 39 17 82 21 98 4 19 2 27 -8 27 -8 0 -45 6 -84 13
-38 7 -78 11 -87 9z"/>
<path d="M568 3212 c-11 -2 -21 -18 -27 -40 -10 -41 -11 -46 -48 -182 -43
-162 -56 -257 -45 -323 19 -105 92 -171 204 -184 69 -8 74 -19 49 -99 -27 -88
-27 -112 2 -118 52 -11 138 -12 146 -2 5 6 17 45 27 86 10 41 23 81 29 88 9
10 58 9 256 -8 134 -11 256 -22 271 -25 14 -2 31 1 37 8 5 7 27 81 47 166 28
116 34 155 25 160 -7 5 -58 11 -114 15 -145 9 -334 24 -390 32 -44 5 -48 8
-44 28 3 11 15 58 27 104 12 46 20 89 17 96 -6 16 -146 29 -163 15 -6 -5 -21
-52 -34 -104 -31 -125 -35 -130 -88 -116 -83 23 -93 54 -57 192 15 57 32 123
38 146 5 24 8 46 4 49 -3 3 -34 8 -69 10 -35 3 -67 6 -73 8 -5 1 -18 1 -27 -2z"/>
<path d="M1806 2711 c-7 -10 -61 -234 -73 -298 -7 -38 -12 -36 202 -53 77 -5
187 -15 245 -20 95 -9 237 -21 580 -50 63 -6 189 -17 280 -25 91 -9 246 -22
345 -31 99 -8 225 -19 280 -24 55 -5 210 -18 345 -29 135 -11 288 -25 340 -31
87 -9 276 -26 745 -65 94 -8 220 -19 280 -25 61 -5 187 -17 280 -25 94 -8 249
-21 345 -30 236 -21 597 -52 810 -70 96 -8 220 -19 275 -25 55 -5 163 -14 240
-20 77 -5 178 -14 225 -20 47 -5 173 -17 280 -25 107 -8 240 -20 295 -25 55
-5 181 -17 280 -25 99 -9 225 -20 280 -25 55 -6 186 -17 290 -25 105 -8 235
-20 290 -25 55 -5 181 -16 280 -25 99 -8 227 -19 285 -25 58 -5 188 -16 290
-25 102 -9 235 -21 295 -27 61 -6 148 -11 195 -12 l85 -1 8 95 c4 52 11 132
15 178 4 46 5 87 2 91 -4 7 -223 29 -455 47 -38 3 -90 7 -115 10 -25 2 -106 9
-180 14 -74 6 -182 15 -240 20 -58 5 -188 16 -290 24 -272 23 -404 34 -605 51
-99 8 -236 20 -305 25 -69 5 -204 17 -300 25 -96 8 -314 26 -485 40 -170 13
-326 27 -345 30 -19 2 -98 9 -175 15 -301 23 -386 30 -560 45 -99 8 -238 20
-310 25 -71 6 -148 12 -170 15 -22 3 -150 14 -285 25 -246 19 -518 42 -965 80
-132 11 -350 29 -485 40 -135 10 -297 24 -360 30 -63 6 -200 17 -305 25 -104
8 -239 20 -300 25 -178 16 -446 38 -655 55 -107 8 -242 20 -300 25 -142 13
-318 28 -480 40 -74 6 -158 13 -186 16 -32 4 -54 2 -58 -5z"/>
</g>
</svg>
