<?xml version="1.0" standalone="no"?>
<!DOCTYPE svg PUBLIC "-//W3C//DTD SVG 20010904//EN"
 "http://www.w3.org/TR/2001/REC-SVG-20010904/DTD/svg10.dtd">
<svg version="1.0" xmlns="http://www.w3.org/2000/svg"
 width="512.000000pt" height="512.000000pt" viewBox="0 0 512.000000 512.000000"
 preserveAspectRatio="xMidYMid meet">

<g transform="translate(0.000000,512.000000) scale(0.100000,-0.100000)"
fill="#000000" stroke="none">
<path d="M1650 5111 c-71 -23 -131 -74 -166 -141 -15 -29 -19 -63 -22 -187
l-4 -152 -342 -3 -341 -3 -66 -32 c-80 -39 -150 -111 -187 -191 l-27 -57 -3
-342 -3 -341 -152 -4 c-169 -4 -201 -13 -263 -80 -54 -56 -69 -95 -69 -178 0
-64 4 -82 27 -122 64 -107 137 -138 330 -138 l128 0 0 -159 0 -159 -152 -4
c-170 -4 -202 -13 -264 -80 -54 -57 -69 -95 -69 -178 0 -85 15 -122 73 -183
58 -60 119 -77 277 -77 l135 0 0 -160 0 -160 -128 0 c-193 0 -266 -31 -330
-138 -23 -40 -27 -58 -27 -122 0 -85 20 -133 77 -186 65 -62 89 -68 255 -72
l152 -4 3 -341 3 -342 27 -57 c37 -80 107 -152 187 -191 l66 -32 341 -3 342
-3 4 -152 c3 -132 6 -157 25 -192 86 -161 287 -192 414 -65 65 65 79 116 79
282 l0 128 159 0 159 0 4 -152 c4 -170 13 -202 80 -264 57 -54 95 -69 178 -69
85 0 122 15 183 73 60 58 77 119 77 277 l0 135 160 0 160 0 0 -128 c0 -193 31
-266 138 -330 40 -23 58 -27 122 -27 83 0 122 15 178 69 67 62 76 94 80 263
l4 152 341 3 342 3 57 27 c80 37 152 107 191 187 l32 66 3 341 3 342 152 4
c124 3 158 7 187 22 165 87 199 288 70 417 -65 65 -116 79 -282 79 l-128 0 0
160 0 160 135 0 c158 0 219 17 277 77 58 61 73 98 73 183 0 83 -15 121 -69
178 -62 67 -94 76 -263 80 l-153 4 0 159 0 159 128 0 c166 0 217 14 282 79
127 127 96 328 -65 414 -35 19 -60 22 -192 25 l-152 4 -3 342 -3 341 -32 66
c-39 80 -111 150 -191 187 l-57 27 -342 3 -341 3 -4 152 c-4 169 -13 201 -80
263 -56 54 -95 69 -178 69 -64 0 -82 -4 -122 -27 -107 -64 -138 -137 -138
-330 l0 -128 -160 0 -160 0 0 135 c0 158 -17 219 -77 277 -61 58 -98 73 -183
73 -83 0 -121 -15 -178 -69 -67 -62 -76 -94 -80 -263 l-4 -153 -159 0 -159 0
0 128 c0 192 -31 267 -136 328 -48 28 -146 41 -194 25z m2716 -666 c30 -19 60
-49 79 -79 l30 -49 0 -1757 0 -1757 -30 -49 c-19 -30 -49 -60 -79 -79 l-49
-30 -1751 0 c-1689 0 -1752 1 -1786 19 -49 26 -88 64 -113 111 l-22 40 0 1745
c0 1683 1 1746 19 1780 35 66 87 110 156 131 14 4 806 7 1761 6 l1736 -2 49
-30z"/>
<path d="M1605 4205 c-24 -23 -25 -29 -25 -153 l0 -129 -84 -5 c-103 -7 -157
-30 -216 -94 -55 -60 -71 -102 -78 -201 l-5 -83 -129 0 c-124 0 -130 -1 -153
-25 -14 -13 -25 -35 -25 -49 0 -71 34 -86 190 -86 l120 0 0 -139 0 -139 -136
-4 c-129 -3 -137 -4 -155 -27 -24 -30 -24 -72 0 -102 18 -23 26 -24 155 -27
l136 -4 0 -148 0 -148 -136 -4 c-129 -3 -137 -4 -155 -27 -24 -30 -24 -72 0
-102 18 -23 26 -24 155 -27 l136 -4 0 -148 0 -148 -136 -4 c-129 -3 -137 -4
-155 -27 -24 -30 -24 -72 0 -102 18 -23 26 -24 155 -27 l136 -4 0 -139 0 -139
-120 0 c-135 0 -175 -12 -186 -57 -9 -36 6 -75 36 -90 16 -8 69 -13 146 -13
l121 0 5 -82 c7 -100 23 -142 78 -202 59 -64 113 -87 216 -94 l84 -5 0 -129
c0 -124 1 -130 25 -153 13 -14 35 -25 49 -25 71 0 86 34 86 190 l0 120 139 0
139 0 4 -136 c3 -129 4 -137 27 -155 30 -24 72 -24 102 0 23 18 24 26 27 155
l4 136 148 0 148 0 4 -136 c3 -129 4 -137 27 -155 30 -24 72 -24 102 0 23 18
24 26 27 155 l4 136 148 0 148 0 4 -136 c3 -129 4 -137 27 -155 30 -24 72 -24
102 0 23 18 24 26 27 155 l4 136 139 0 139 0 0 -120 c0 -135 12 -175 57 -186
36 -9 75 6 90 36 8 16 13 69 13 146 l0 121 83 5 c98 7 141 23 201 78 62 57 87
116 94 218 l5 82 121 0 c77 0 130 5 146 13 30 15 45 54 36 90 -11 45 -51 57
-186 57 l-120 0 0 139 0 139 136 4 c129 3 137 4 155 27 24 30 24 72 0 102 -18
23 -26 24 -155 27 l-136 4 0 148 0 148 136 4 c129 3 137 4 155 27 24 30 24 72
0 102 -18 23 -26 24 -155 27 l-136 4 0 148 0 148 136 4 c129 3 137 4 155 27
24 30 24 72 0 102 -18 23 -26 24 -155 27 l-136 4 0 139 0 139 120 0 c156 0
190 15 190 86 0 14 -11 36 -25 49 -23 24 -29 25 -153 25 l-129 0 -5 84 c-7
103 -30 157 -94 216 -60 55 -102 71 -201 78 l-82 5 -3 134 c-3 128 -4 136 -27
154 -30 24 -72 24 -102 0 -23 -18 -24 -26 -27 -155 l-4 -136 -138 0 -138 0 -4
136 c-3 129 -4 137 -27 155 -30 24 -72 24 -102 0 -23 -18 -24 -26 -27 -155
l-4 -136 -148 0 -148 0 -4 136 c-3 129 -4 137 -27 155 -13 10 -36 19 -51 19
-15 0 -38 -9 -51 -19 -23 -18 -24 -26 -27 -155 l-4 -136 -148 0 -148 0 -4 136
c-3 129 -4 137 -27 155 -30 24 -72 24 -102 0 -23 -18 -24 -26 -27 -155 l-4
-136 -139 0 -139 0 0 120 c0 156 -15 190 -86 190 -14 0 -36 -11 -49 -25z
m2095 -460 c63 -33 60 35 60 -1185 0 -1220 3 -1152 -60 -1185 -25 -13 -167
-15 -1140 -15 -1225 0 -1146 -4 -1184 60 -15 26 -16 129 -16 1140 0 1008 2
1114 16 1139 38 65 -43 60 1182 61 976 0 1117 -2 1142 -15z"/>
<path d="M1825 3391 c-48 -22 -79 -54 -100 -103 -13 -33 -15 -128 -15 -731 l0
-693 23 -44 c13 -26 40 -57 65 -75 l44 -30 707 -3 707 -2 45 23 c24 13 58 43
74 66 l30 43 0 718 0 718 -30 44 c-18 25 -49 52 -75 66 -43 21 -53 22 -351 22
-277 0 -309 -2 -328 -17 -32 -27 -37 -73 -11 -106 l21 -27 299 0 c297 0 299 0
314 -22 14 -20 16 -101 16 -680 0 -654 0 -658 -21 -679 -21 -21 -22 -21 -682
-17 -364 1 -668 7 -674 11 -10 6 -13 155 -13 688 l0 679 26 10 c14 6 130 10
259 10 128 0 241 3 250 6 22 9 46 59 38 81 -3 10 -15 28 -26 41 -20 22 -23 22
-286 22 -237 0 -270 -2 -306 -19z"/>
</g>
</svg>
