<?xml version="1.0" standalone="no"?>
<!DOCTYPE svg PUBLIC "-//W3C//DTD SVG 20010904//EN"
 "http://www.w3.org/TR/2001/REC-SVG-20010904/DTD/svg10.dtd">
<svg version="1.0" xmlns="http://www.w3.org/2000/svg"
 width="128.000000pt" height="128.000000pt" viewBox="0 0 128.000000 128.000000"
 preserveAspectRatio="xMidYMid meet">

<g transform="translate(0.000000,128.000000) scale(0.100000,-0.100000)"
fill="#000000" stroke="none">
<path d="M195 1261 c-69 -17 -126 -63 -161 -131 -24 -47 -27 -155 -16 -605 8
-337 9 -363 29 -400 25 -48 58 -80 97 -95 16 -6 90 -16 165 -22 171 -13 739
-4 794 13 52 17 111 71 133 121 17 39 19 80 22 478 2 315 0 447 -9 478 -14 51
-75 123 -126 148 -35 18 -69 19 -468 20 -237 1 -443 -2 -460 -5z m878 -52 c22
-6 54 -26 76 -48 62 -62 65 -88 66 -557 l0 -410 -30 -49 c-42 -68 -86 -88
-199 -92 l-91 -3 56 20 c151 55 213 186 240 508 23 277 1 390 -91 484 -84 83
-132 96 -428 111 -326 16 -418 0 -505 -87 -46 -45 -76 -114 -96 -216 -15 -80
-16 -82 -19 -40 -2 25 1 92 8 150 14 122 38 175 97 212 35 21 52 23 213 28
238 7 656 0 703 -11z m-655 -260 c53 -30 58 -31 110 -20 69 14 152 14 224 1
54 -10 58 -9 104 20 50 31 78 37 90 19 3 -6 6 -42 6 -80 -1 -57 4 -77 26 -116
23 -42 27 -59 26 -130 0 -70 -4 -90 -30 -139 -34 -67 -90 -115 -166 -141 -28
-10 -53 -24 -55 -31 -3 -6 2 -30 11 -52 11 -27 16 -71 16 -135 l0 -95 -145 0
-144 0 2 52 2 53 -75 5 c-90 6 -111 18 -146 85 -15 27 -36 61 -48 74 l-21 24
22 -12 c12 -6 37 -30 55 -52 18 -23 45 -47 60 -55 56 -29 150 -10 156 33 2 11
12 29 23 39 27 24 24 43 -8 50 -209 46 -271 120 -261 311 4 68 9 88 32 124 24
35 27 49 23 84 -4 23 -4 58 0 79 5 30 10 36 31 36 14 0 50 -14 80 -31z m-146
-94 c3 -14 0 -29 -6 -34 -9 -7 -11 -1 -8 24 5 41 8 44 14 10z m-40 -95 c-9
-21 -18 -35 -20 -30 -3 9 25 70 33 70 2 0 -4 -18 -13 -40z m5 -240 c11 -30 23
-64 28 -75 4 -11 -2 -6 -14 10 -32 45 -51 121 -50 194 l2 66 7 -70 c4 -38 17
-95 27 -125z m-147 -195 c0 -35 34 -120 66 -166 15 -21 47 -52 72 -69 l45 -30
-37 0 c-74 0 -121 36 -144 110 -14 46 -22 180 -11 180 5 0 9 -11 9 -25z m120
-41 c0 -3 -13 4 -30 16 -16 12 -30 24 -30 26 0 3 14 -4 30 -16 17 -12 30 -24
30 -26z m280 31 c0 -25 -32 -75 -47 -74 -10 0 -13 3 -5 6 6 2 12 11 12 19 0
21 19 54 30 54 6 0 10 -2 10 -5z m-251 -85 c5 -17 6 -28 2 -25 -5 3 -14 19
-20 35 -5 17 -6 28 -2 25 5 -3 14 -19 20 -35z m228 -177 c-12 -11 -27 9 -27
36 0 43 14 47 24 6 4 -20 6 -39 3 -42z"/>
</g>
</svg>
