<?xml version="1.0" standalone="no"?>
<!DOCTYPE svg PUBLIC "-//W3C//DTD SVG 20010904//EN"
 "http://www.w3.org/TR/2001/REC-SVG-20010904/DTD/svg10.dtd">
<svg version="1.0" xmlns="http://www.w3.org/2000/svg"
 width="350.000000pt" height="350.000000pt" viewBox="0 0 350.000000 350.000000"
 preserveAspectRatio="xMidYMid meet">

<g transform="translate(0.000000,350.000000) scale(0.100000,-0.100000)"
fill="#000000" stroke="none">
<path d="M2400 2926 c-124 -27 -222 -102 -276 -211 -26 -54 -29 -70 -28 -150
0 -49 4 -139 9 -200 12 -172 -15 -253 -134 -400 -83 -102 -101 -129 -137 -214
l-34 -76 0 78 c0 43 -5 87 -10 97 -6 11 -28 25 -50 31 l-40 12 0 74 c0 69 -2
77 -29 104 l-30 29 -721 -2 -722 -3 -19 -24 c-18 -22 -19 -46 -19 -531 0 -485
1 -509 19 -531 19 -24 23 -24 191 -24 168 0 172 0 191 24 13 16 19 39 19 77 0
66 28 105 78 106 53 2 82 -34 82 -100 0 -46 4 -58 29 -83 l29 -29 350 0 349 0
11 25 c7 14 12 28 12 30 0 3 -161 5 -359 5 l-358 0 -6 60 c-6 69 -24 102 -70
130 -39 24 -78 25 -124 4 -48 -23 -67 -57 -73 -129 l-5 -60 -155 0 -155 0 0
495 0 495 712 3 713 2 0 -104 0 -105 53 -3 52 -3 5 -269 5 -269 32 51 c33 54
66 72 100 54 10 -6 65 -83 122 -171 97 -153 104 -161 129 -155 88 19 127 46
120 80 -3 18 -23 33 -109 84 -23 14 -82 64 -130 112 -77 76 -88 91 -84 115 46
282 122 497 241 681 l47 73 -33 34 c-36 37 -34 49 19 99 l30 29 -23 22 c-70
65 -36 215 49 215 45 0 96 -89 80 -139 -5 -18 -3 -19 29 -10 26 7 44 6 72 -6
20 -8 38 -15 39 -15 1 0 1 19 -2 43 -4 48 10 81 49 110 95 71 166 -126 73
-203 -14 -12 -11 -18 32 -55 46 -40 47 -42 34 -72 -12 -29 -10 -34 28 -84 116
-152 240 -480 267 -702 6 -52 4 -60 -16 -79 -50 -47 -63 -125 -31 -193 22 -48
44 -69 94 -90 141 -59 283 85 224 228 -9 20 -14 72 -14 137 0 200 -66 363
-213 529 -147 166 -176 247 -167 451 3 69 2 144 -4 168 -34 152 -160 273 -313
301 -33 6 -62 11 -65 10 -3 0 -31 -6 -61 -13z"/>
<path d="M2230 2521 c-15 -29 -12 -83 5 -109 15 -21 17 -21 40 -6 42 28 30
134 -15 134 -11 0 -24 -9 -30 -19z"/>
<path d="M2543 2528 c-29 -37 -23 -112 9 -129 27 -14 47 5 55 54 9 58 -36 111
-64 75z"/>
<path d="M2194 2278 c-9 -15 41 -57 110 -92 103 -52 208 -37 301 45 41 36 43
45 14 54 -15 5 -29 -1 -53 -24 -88 -85 -213 -84 -319 5 -32 27 -43 29 -53 12z"/>
<path d="M277 1972 c-15 -16 -17 -54 -17 -329 0 -354 -3 -343 83 -343 80 0 77
-11 77 349 0 233 -3 320 -12 329 -20 20 -112 15 -131 -6z m91 -325 l2 -287
-25 0 -25 0 0 288 0 289 23 -2 22 -2 3 -286z"/>
<path d="M486 1968 c-14 -19 -16 -67 -16 -325 0 -290 1 -304 20 -323 15 -15
33 -20 69 -20 82 0 81 -5 81 345 0 352 2 345 -85 345 -44 0 -57 -4 -69 -22z
m94 -318 l0 -290 -25 0 -25 0 0 283 c0 156 3 287 7 290 3 4 15 7 25 7 17 0 18
-15 18 -290z"/>
<path d="M1320 1965 c0 -21 5 -25 30 -25 25 0 30 4 30 25 0 21 -5 25 -30 25
-25 0 -30 -4 -30 -25z"/>
<path d="M1430 1965 c0 -21 5 -25 30 -25 25 0 30 4 30 25 0 21 -5 25 -30 25
-25 0 -30 -4 -30 -25z"/>
<path d="M1540 1965 c0 -20 5 -25 25 -25 20 0 25 5 25 25 0 20 -5 25 -25 25
-20 0 -25 -5 -25 -25z"/>
<path d="M849 1933 c-1 -5 -2 -28 -3 -53 -1 -41 -3 -45 -28 -48 -22 -3 -28 -9
-28 -28 0 -22 -4 -24 -50 -24 -49 0 -50 -1 -50 -30 0 -29 1 -30 50 -30 46 0
50 -2 50 -23 0 -21 -4 -24 -37 -22 -52 2 -63 -3 -63 -31 0 -22 4 -24 50 -24
47 0 50 -2 50 -25 0 -23 -3 -25 -50 -25 -49 0 -50 -1 -50 -30 0 -29 1 -30 50
-30 46 0 50 -2 50 -24 0 -19 6 -25 28 -28 25 -3 27 -6 27 -53 0 -47 2 -50 28
-53 27 -3 27 -2 27 52 0 53 1 56 25 56 24 0 25 -3 25 -55 0 -54 0 -55 30 -55
30 0 30 1 30 55 0 52 1 55 25 55 24 0 25 -3 25 -55 0 -52 1 -55 25 -55 14 0
26 6 26 13 1 6 2 30 3 52 1 33 5 41 23 43 20 3 22 -2 25 -50 3 -50 5 -53 31
-56 27 -3 27 -2 27 52 0 53 1 56 25 56 20 0 25 5 25 25 0 24 3 25 55 25 54 0
55 0 55 30 0 30 0 30 -56 30 -52 0 -55 1 -52 23 3 19 10 22 56 25 48 3 52 5
52 28 0 16 -6 24 -17 25 -10 0 -34 1 -53 2 -28 2 -36 6 -38 25 -3 21 0 22 52
22 56 0 56 0 56 30 0 30 -1 30 -55 30 -52 0 -55 1 -55 25 0 20 -5 25 -25 25
-24 0 -25 3 -25 55 0 54 0 55 -30 55 -30 0 -30 0 -30 -56 0 -52 -1 -55 -22
-52 -20 3 -23 9 -23 53 0 47 -2 50 -27 53 -26 3 -27 1 -30 -50 -3 -46 -6 -53
-25 -56 -22 -3 -23 0 -23 52 0 56 0 56 -30 56 -30 0 -30 -1 -30 -55 0 -52 -1
-55 -25 -55 -24 0 -25 3 -25 55 0 52 -1 55 -25 55 -14 0 -26 -3 -26 -7z m371
-288 l0 -135 -185 0 -185 0 0 135 0 135 185 0 185 0 0 -135z"/>
<path d="M900 1700 c0 -25 4 -30 25 -30 21 0 25 5 25 30 0 25 -4 30 -25 30
-21 0 -25 -5 -25 -30z"/>
<path d="M1010 1700 l0 -31 78 3 c75 3 77 4 77 28 0 24 -2 25 -77 28 l-78 3 0
-31z"/>
<path d="M900 1595 l0 -25 135 0 135 0 0 25 0 25 -135 0 -135 0 0 -25z"/>
<path d="M1506 1749 c-14 -17 -26 -39 -26 -49 0 -10 12 -32 26 -49 33 -40 80
-42 114 -6 33 35 31 81 -4 112 -38 33 -78 30 -110 -8z m82 -46 c5 -17 -26 -29
-40 -15 -6 6 -7 15 -3 22 9 14 37 9 43 -7z"/>
<path d="M1534 1505 c-39 -16 -61 -66 -46 -100 25 -54 98 -69 135 -27 58 66
-9 161 -89 127z m45 -54 c17 -11 7 -41 -13 -41 -19 0 -29 17 -22 35 6 17 15
18 35 6z"/>
<path d="M260 1170 l0 -80 110 0 110 0 0 80 0 80 -110 0 -110 0 0 -80z m160
-5 c0 -23 -3 -25 -50 -25 -47 0 -50 2 -50 25 0 23 3 25 50 25 47 0 50 -2 50
-25z"/>
<path d="M849 1243 c0 -5 -1 -39 -2 -78 l-2 -70 108 -3 107 -3 0 81 0 80 -105
0 c-58 0 -105 -3 -106 -7z m159 -75 c-3 -20 -10 -23 -55 -26 -51 -3 -53 -2
-53 22 0 25 3 26 56 26 52 0 55 -1 52 -22z"/>
<path d="M1110 1170 l0 -80 110 0 110 0 0 80 0 80 -110 0 -110 0 0 -80z m160
-5 c0 -23 -3 -25 -50 -25 -47 0 -50 2 -50 25 0 23 3 25 50 25 47 0 50 -2 50
-25z"/>
<path d="M1380 1170 l0 -80 80 0 c72 0 80 2 80 19 0 11 11 33 25 49 15 18 25
42 25 61 l0 31 -105 0 -105 0 0 -80z m160 -5 c0 -24 -3 -25 -55 -25 -52 0 -55
1 -55 25 0 24 3 25 55 25 52 0 55 -1 55 -25z"/>
<path d="M1640 1230 c0 -25 18 -25 50 0 l25 20 -37 0 c-31 0 -38 -4 -38 -20z"/>
<path d="M2215 897 c12 -19 16 -42 13 -82 -2 -45 0 -54 12 -50 84 25 235 29
315 9 21 -5 22 -2 20 48 -2 53 -2 53 -31 48 -16 -3 -67 -4 -114 -3 -78 1 -120
11 -214 49 -18 7 -18 6 -1 -19z"/>
</g>
</svg>
